<svg xmlns="http://www.w3.org/2000/svg" viewBox="0 -960 960 960"  fill="currentColor"><path d="
M 684-80
q -48.33 0 -82.17 -33.83
Q 568 -147.67 568 -196
q 0 -7.33 4.33 -32
l -293 -171.33
q -16.18 16.56 -37.42 25.94
Q 220.67 -364 196 -364
q -48.33 0 -82.17 -33.83
Q 80 -431.67 80 -480
t 33.83 -82.17
Q 147.67 -596 196 -596
q 24 0 45 9.03
T 278 -562
l 294.33 -170
q -2 -7.67 -3.16 -15.5
Q 568 -755.33 568 -764
q 0 -48.33 33.83 -82.17
Q 635.67 -880 684 -880
t 82.17 33.83
Q 800 -812.33 800 -764
t -33.83 82.17
Q 732.33 -648 684 -648
q -23.52 0 -44.09 -8.83 -20.58 -8.84 -36.58 -23.84
L 307 -513.33
q 2.67 7.66 3.83 16.16 1.17 8.5 1.17 16.84 0 8.33 -0.83 15.5 -0.84 7.16-2.84 14.83
L 604 -280
q 16 -15 36.4 -23.5 20.39 -8.5 43.7 -8.5 48.57 0 82.23 33.83
Q 800 -244.33 800 -196
t -33.83 82.17
Q 732.33 -80 684 -80
Z
m 0.02 -66.67
q 20.98 0 35.15 -14.19 14.16 -14.19 14.16 -35.16 0 -20.98 -14.19 -35.15 -14.19 -14.16 -35.16 -14.16 -20.98 0 -35.15 14.19 -14.16 14.19 -14.16 35.16 0 20.98 14.19 35.15 14.19 14.16 35.16 14.16
Z
m -488 -284
q 20.98 0 35.15 -14.19 14.16 -14.19 14.16 -35.16 0 -20.98 -14.19 -35.15 -14.19 -14.16 -35.16 -14.16 -20.98 0 -35.15 14.19 -14.16 14.19 -14.16 35.16 0 20.98 14.19 35.15 14.19 14.16 35.16 14.16
Z
m 488 -284
q 20.98 0 35.15 -14.19 14.16 -14.19 14.16 -35.16 0 -20.98 -14.19 -35.15 -14.19 -14.16 -35.16 -14.16 -20.98 0 -35.15 14.19 -14.16 14.19 -14.16 35.16 0 20.98 14.19 35.15 14.19 14.16 35.16 14.16
Z
M 684 -196
Z
M 196 -480
Z
m 488 -284
Z
"/></svg>